# File created by Blade
# Date/Time:  Wed Jan 21 17:05:57 2015
# Frame Rate: 120.000 fps
#------------------------------------------------------
:FULLY-SPECIFIED
:DEGREES
194
root 19.987682 18.331521 -11.713555 -157.178383 2.249930 -179.933312
Spine 41.871347 3.795797 -5.620969
Head -14.251262 -0.525543 6.040531
LeftShoulder 14.216402 -54.712326 22.341053
LeftArm 51.427619 -0.893395 -19.108149
LeftForeArm -4.847495 0.000000 -1.165478
LeftHand -6.058048 -0.000000 15.303533
LeftHandThumb1 -26.253704 0.000000 33.147579
RightShoulder 6.592102 20.946398 -28.070507
RightArm 54.300051 42.742337 27.556787
RightForeArm -18.418109 -0.000000 7.893512
RightHand -11.636093 -0.000000 -22.883772
RightHandThumb1 -24.326973 -0.000000 -32.862282
LeftUpLeg -110.023609 23.538424 -15.234526
LeftLeg 113.539158 -0.000000 -0.000000
LeftFoot -48.291780 19.062015 -11.701924
LeftToeBase 27.599310 -0.000000 -0.000000
RightUpLeg -108.855081 -15.252462 13.787383
RightLeg 113.515672 -0.000000 -0.000000
RightFoot -50.082917 -24.185053 18.423839
RightToeBase 24.404815 -0.000000 -0.000000
195
root 19.974747 18.056778 -11.720969 -157.379909 2.241432 -179.975104
Spine 42.502519 3.714641 -5.640140
Head -14.475263 -0.488007 5.925756
LeftShoulder 14.403665 -54.888325 22.301220
LeftArm 51.567385 -0.729829 -18.975631
LeftForeArm -4.830490 -0.000000 -1.167746
LeftHand -6.060311 0.000000 15.454041
LeftHandThumb1 -26.253704 0.000000 33.147579
RightShoulder 6.639858 20.958711 -28.237962
RightArm 54.597487 42.734908 27.534584
RightForeArm -18.327705 -0.000000 7.929192
RightHand -11.676603 -0.000000 -22.840786
RightHandThumb1 -24.326973 -0.000000 -32.862282
LeftUpLeg -110.737781 23.590475 -15.345122
LeftLeg 114.554104 -0.000000 -0.000000
LeftFoot -48.408598 18.994972 -11.677144
LeftToeBase 27.636326 -0.000000 -0.000000
RightUpLeg -109.574559 -15.332308 13.808141
RightLeg 114.535745 -0.000000 -0.000000
RightFoot -50.175850 -24.209949 18.353946
RightToeBase 24.424874 -0.000000 -0.000000
196
root 19.964471 17.783611 -11.728250 -157.588493 2.267768 -180.022363
Spine 43.127237 3.696090 -5.705089
Head -14.679975 -0.431401 5.894275
LeftShoulder 14.512505 -55.090072 22.405244
LeftArm 51.693461 -0.654330 -19.022217
LeftForeArm -4.566605 0.000000 -1.139293
LeftHand -6.107259 -0.000000 15.564637
LeftHandThumb1 -26.253704 0.000000 33.147579
RightShoulder 6.697773 21.192121 -28.397773
RightArm 54.833344 42.659441 27.683473
RightForeArm -18.554159 -0.000000 7.996251
RightHand -11.683970 -0.000000 -22.747451
RightHandThumb1 -24.326973 -0.000000 -32.862282
LeftUpLeg -111.459176 23.680097 -15.494822
LeftLeg 115.560602 -0.000000 -0.000000
LeftFoot -48.490761 18.934028 -11.659710
LeftToeBase 27.462789 -0.000000 -0.000000
RightUpLeg -110.281470 -15.361843 13.793258
RightLeg 115.526861 -0.000000 -0.000000
RightFoot -50.282045 -24.232997 18.329091
RightToeBase 24.593637 -0.000000 -0.000000
197
root 19.957422 17.513624 -11.735288 -157.791120 2.361490 -180.041218
Spine 43.736728 3.798533 -5.755250
Head -14.888219 -0.407545 5.912400
LeftShoulder 14.687373 -55.289922 22.491847
LeftArm 51.796696 -0.565572 -19.022179
LeftForeArm -4.448451 -0.000000 -1.126529
LeftHand -6.162580 0.000000 15.707396
LeftHandThumb1 -26.253704 0.000000 33.147579
RightShoulder 6.703053 21.399510 -28.550041
RightArm 54.960517 42.490493 27.662327
RightForeArm -18.670135 -0.000000 8.067644
RightHand -11.559749 -0.000000 -22.841734
RightHandThumb1 -24.326973 -0.000000 -32.862282
LeftUpLeg -112.183889 23.847148 -15.639782
LeftLeg 116.541898 -0.000000 -0.000000
LeftFoot -48.625225 18.914712 -11.594770
LeftToeBase 27.531703 -0.000000 -0.000000
RightUpLeg -110.949617 -15.296530 13.760185
RightLeg 116.475763 -0.000000 -0.000000
RightFoot -50.376531 -24.276588 18.292268
RightToeBase 24.606716 -0.000000 -0.000000
198
root 19.948985 17.246624 -11.748684 -158.060717 2.342784 -180.025541
Spine 44.429462 3.843937 -5.617956
Head -15.081563 -0.535475 5.843949
LeftShoulder 15.038370 -55.557997 22.328584
LeftArm 51.896089 -0.315113 -18.866989
LeftForeArm -4.476837 -0.000000 -1.049909
LeftHand -6.262814 -0.000000 15.917732
LeftHandThumb1 -26.253704 0.000000 33.147579
RightShoulder 6.642381 21.516546 -28.779209
RightArm 55.086747 42.393638 27.642357
RightForeArm -18.725454 -0.000000 8.157183
RightHand -11.567491 0.000000 -22.875729
RightHandThumb1 -24.326973 -0.000000 -32.862282
LeftUpLeg -112.818995 23.928982 -15.676247
LeftLeg 117.513654 -0.000000 -0.000000
LeftFoot -48.730117 18.873713 -11.591881
LeftToeBase 27.322913 -0.000000 -0.000000
RightUpLeg -111.606106 -15.368681 13.832416
RightLeg 117.459530 -0.000000 -0.000000
RightFoot -50.426379 -24.166166 18.411823
RightToeBase 24.466779 -0.000000 -0.000000
